<svg class="why-card__img" xmlns="http://www.w3.org/2000/svg"
                        xmlns:xlink="http://www.w3.org/1999/xlink" preserveAspectRatio="xMidYMid meet" version="1.0"
                        viewBox="-0.4 0.0 267.5 300.0" zoomAndPan="magnify" style="fill: rgb(11, 36, 71);"
                        original_string_length="16327">
                        <g id="adtIcon">
                            <g id="__id111_soxi50mss">
                                <path
                                    d="M234.8,124c0,1.6,1.3,3,3,3c1.6,0,2.9-1.3,2.9-2.9c0-0.9,0-1.8,0-2.7c0-4.4-0.3-8.9-0.9-13.3c-0.2-1.5-1.4-2.5-3.3-2.5 c0,0,0,0-0.1,0c-0.8,0.1-1.5,0.5-1.9,1.1c-0.5,0.6-0.7,1.4-0.6,2.2c0.6,4.1,0.9,8.3,0.9,12.5C234.9,122.4,234.9,123.2,234.8,124z"
                                    style="fill: inherit;" />
                                <path
                                    d="M182.2,40c4.6,2.1,9,4.5,13.1,7.3c0.5,0.3,1,0.5,1.6,0.5c1,0,1.9-0.5,2.4-1.3c0.4-0.7,0.6-1.4,0.4-2.2 c-0.2-0.8-0.6-1.4-1.2-1.9c-4.4-3-9.1-5.6-14-7.8c-0.4-0.2-0.8-0.3-1.2-0.3c-1.2,0-2.2,0.7-2.7,1.7c-0.3,0.7-0.3,1.5-0.1,2.3 C180.9,39.1,181.5,39.6,182.2,40z"
                                    style="fill: inherit;" />
                                <path
                                    d="M145.5,2c-32,0-62,12.4-84.5,35c-22.6,22.6-35,52.6-35,84.5c0,15.6,3,30.8,8.8,45.1l0.5,1.2l-13.5,13.5 c-2.4,2.4-3.7,5.6-3.7,8.9s1.3,6.5,3.7,8.9l4.4,4.4L2.9,226.9C2.3,227.5,2,228.2,2,229c0,0.8,0.3,1.5,0.9,2.1 c0.6,0.6,1.3,0.9,2.1,0.9c0.8,0,1.5-0.3,2.1-0.9l23.3-23.3l28.9,28.9L7.9,287.9v-38.6c0-1.6-1.3-2.9-2.9-2.9 c-1.6,0-2.9,1.3-2.9,2.9V295c0,1.2,0.7,2.3,1.8,2.7c0.4,0.1,0.7,0.2,1.1,0.2c0.8,0,1.5-0.3,2.1-0.9l56.3-56.3l4.4,4.4 c2.4,2.4,5.6,3.7,8.9,3.7c3.4,0,6.5-1.3,8.9-3.7l13.5-13.5l1.3,0.5c14.3,5.8,29.5,8.8,45.1,8.8c31.9,0,61.9-12.4,84.5-35 c22.6-22.6,35-52.6,35-84.5S252.6,59.6,230,37C207.5,14.4,177.4,2,145.5,2z M81.5,241.1c-1.2,1.2-3,1.9-4.8,1.9 c-1.8,0-3.5-0.7-4.8-1.9L25.9,195c-1.3-1.3-2-3-2-4.8c0-1.8,0.7-3.5,2-4.8l11.9-11.9l1.3,2.5c4.2,8.1,9.3,15.8,15.2,22.7l0.8,0.9 c1.9,2.2,3.8,4.3,5.9,6.3c2,2,4.2,4,6.3,5.8l0.9,0.8c7,6,14.7,11.1,22.8,15.3l2.5,1.3L81.5,241.1z M225.8,201.9 c-21.5,21.5-50,33.3-80.4,33.3c-15.6,0-30.8-3.2-45.2-9.4l-0.5-0.3c-9.7-4.3-18.7-9.8-26.8-16.4c-2.9-2.4-5.5-4.8-7.9-7.2 c-2.4-2.4-4.7-5-7.2-7.9c-6.6-8-12.2-17-16.4-26.8l-0.2-0.3l-0.1-0.2c-6.2-14.4-9.4-29.6-9.4-45.2c0-30.4,11.8-58.9,33.3-80.4 c21.4-21.4,50-33.2,80.4-33.2c30.4,0,58.9,11.8,80.4,33.2c21.5,21.5,33.3,50,33.3,80.4C259.1,151.9,247.3,180.4,225.8,201.9z"
                                    style="fill: inherit;" />
                                <path
                                    d="M229,153.4c-0.9,2.4-1.9,4.8-3.1,7.1c-4.3,9-10.2,17.2-17.3,24.3c-16.9,16.9-39.3,26.1-63.2,26.1s-46.4-9.3-63.2-26.1 c-34.9-34.9-34.9-91.6,0-126.4c16.9-16.9,39.3-26.2,63.2-26.2c2.6,0,5.1,0.1,8,0.3c1.5,0,2.8-1.2,2.9-2.7c0.1-1.6-1.1-3-2.7-3.2 c-2.7-0.2-5.5-0.3-8.2-0.3c-25.5,0-49.4,9.9-67.4,27.9c-37.2,37.2-37.2,97.6,0,134.8c18,18,41.9,27.9,67.4,27.9 c25.5,0,49.4-9.9,67.4-27.9c7.6-7.6,13.8-16.3,18.4-25.9c1.2-2.5,2.3-5,3.3-7.6c0.3-0.7,0.3-1.5-0.1-2.3c-0.3-0.7-0.9-1.3-1.6-1.5 c-0.3-0.1-0.7-0.2-1-0.2C230.6,151.5,229.5,152.2,229,153.4z"
                                    style="fill: inherit;" />
                                <path
                                    d="M219.3,63.1c-0.6,0-1.3,0.2-1.8,0.6c-0.6,0.5-1,1.2-1.1,1.9c-0.1,0.8,0.1,1.6,0.6,2.2c3,4,5.7,8.3,8,12.7 c0.5,1,1.5,1.6,2.6,1.6c0.5,0,0.9-0.1,1.3-0.3c1.4-0.7,2-2.5,1.3-4c-2.4-4.7-5.3-9.3-8.5-13.5C221.1,63.6,220.3,63.1,219.3,63.1z"
                                    style="fill: inherit;" />
                                <path
                                    d="M181.3,41.8c4.5,2,8.8,4.4,12.8,7.1c0.9,0.6,1.8,0.8,2.8,0.8c1.6,0,3.2-0.8,4.1-2.2c1.5-2.3,0.9-5.4-1.4-6.9 c-4.5-3-9.3-5.7-14.3-7.9c-0.7-0.3-1.4-0.4-2-0.4c-1.9,0-3.7,1.1-4.5,2.9C177.7,37.7,178.8,40.7,181.3,41.8z M182.6,36.9 c0.2-0.4,0.6-0.5,0.8-0.5c0.1,0,0.2,0,0.4,0.1c4.8,2.1,9.4,4.7,13.7,7.6c0.4,0.3,0.5,0.8,0.2,1.3c-0.2,0.4-0.6,0.4-0.8,0.4 c-0.2,0-0.3-0.1-0.5-0.2c-4.2-2.8-8.7-5.4-13.4-7.5c-0.3-0.1-0.4-0.3-0.5-0.5C182.5,37.4,182.4,37.2,182.6,36.9z"
                                    style="fill: inherit;" />
                                <path
                                    d="M69.5,211.1l-0.5-0.5l-0.3-0.3c-2.4-2.1-4.4-4-6.2-5.8c-1.8-1.8-3.6-3.8-5.7-6.2l-0.3-0.3l-0.5-0.6 c-5.9-6.9-10.9-14.4-15-22.4l-2.6-5l-3.9,3.9l-10,10c-1.7,1.7-2.6,3.9-2.6,6.2c0,2.3,0.9,4.6,2.6,6.2l46.1,46.1 c1.6,1.6,3.9,2.5,6.2,2.5c2.3,0,4.6-0.9,6.2-2.5l10-10l3.9-3.9l-5-2.6C83.9,222,76.4,217,69.5,211.1z M80,239.7 c-0.9,0.9-2.1,1.3-3.3,1.3c-1.2,0-2.4-0.4-3.3-1.3l-46.1-46.1c-1.8-1.8-1.8-4.8,0-6.7l10-10c4.2,8.2,9.4,16,15.5,23.1 c0.3,0.3,0.5,0.6,0.8,0.9c1.9,2.2,3.9,4.4,5.9,6.4c2.1,2.1,4.2,4,6.4,6c0.3,0.3,0.6,0.5,0.9,0.8c7.2,6.1,14.9,11.3,23.1,15.5 L80,239.7z"
                                    style="fill: inherit;" />
                                <path
                                    d="M232.8,121.5c0,0.8,0,1.6,0,2.4c-0.1,2.7,2.1,5,5,5.1c2.7,0,4.9-2.1,5-4.8c0-0.9,0-1.8,0-2.7c0-4.5-0.3-9.1-0.9-13.6 c-0.3-2.5-2.5-4.3-4.9-4.3c-0.2,0-0.4,0-0.7,0c-2.7,0.4-4.6,2.9-4.2,5.6C232.6,113.3,232.8,117.4,232.8,121.5z M236.8,107.7l0.1,0 c0.4,0,0.8,0.3,0.9,0.8c0.6,4.3,0.9,8.7,0.9,13c0,0.9,0,1.7,0,2.6c0,0.5-0.4,0.9-0.8,0.9c-0.6,0-1-0.4-1-0.9c0-0.8,0-1.7,0-2.6 c0-4.3-0.3-8.6-0.9-12.8C236,108.3,236.3,107.8,236.8,107.7z"
                                    style="fill: inherit;" />
                                <path
                                    d="M145.5,5.9c-30.9,0-60,12-81.8,33.8c-21.8,21.8-33.9,50.9-33.9,81.8c0,15.9,3.2,31.4,9.6,46l0.1,0.2l0.1,0.2l0.2,0.3 c4.3,9.8,9.9,18.9,16.7,27.1c2.5,3,4.8,5.6,7.3,8c2.5,2.5,5.1,4.8,8.1,7.3c8.1,6.7,17.2,12.3,27,16.6l0.2,0.1l0.1,0.1l0.2,0.1 l0.2,0.1c14.6,6.3,30.1,9.6,46,9.6c30.9,0,59.9-12,81.8-33.9c21.8-21.8,33.9-50.9,33.9-81.8s-12-59.9-33.9-81.8 C205.5,17.9,176.4,5.9,145.5,5.9z M224.4,200.4c-21.1,21.1-49.1,32.7-78.9,32.7c-15.5,0-30.6-3.2-44.4-9.2 c-0.2-0.1-0.3-0.2-0.5-0.3c-9.6-4.2-18.4-9.6-26.3-16.1c-2.7-2.2-5.3-4.6-7.8-7.1c-2.5-2.5-4.8-5.1-7-7.8 c-6.5-7.9-11.9-16.7-16.1-26.3c-0.1-0.2-0.2-0.3-0.3-0.5c-6-13.8-9.2-28.9-9.2-44.4c0-29.8,11.6-57.8,32.7-78.9 C88.3,20.8,116.9,10,145.5,10c28.6,0,57.2,10.9,78.9,32.6c21.1,21.1,32.7,49.1,32.7,78.9C257.1,151.3,245.5,179.3,224.4,200.4z"
                                    style="fill: inherit;" />
                                <path
                                    d="M145.5,0c-31.1,0-62.3,11.8-86,35.5c-23,23-35.6,53.5-35.6,86c0,16,3.1,31.5,8.9,45.8l-12.6,12.6c-5.7,5.7-5.7,15,0,20.7 l3,3L1.5,225.5c-1.9,1.9-1.9,5.1,0,7c1,1,2.2,1.5,3.5,1.5c1.3,0,2.5-0.5,3.5-1.5l21.8-21.8l17.4,17.4l8.5,8.5L10,283v-33.7 c0-2.7-2.2-5-5-5c-2.7,0-5,2.2-5,5V295c0,2,1.2,3.8,3.1,4.6c0.6,0.3,1.3,0.4,1.9,0.4c1.3,0,2.6-0.5,3.5-1.5l54.8-54.8l3,3 c2.8,2.8,6.5,4.3,10.4,4.3c3.9,0,7.6-1.5,10.4-4.3l12.6-12.6c14.4,5.8,29.9,8.9,45.8,8.9c32.5,0,63-12.6,86-35.6 c23-23,35.6-53.5,35.6-86c0-32.5-12.6-63-35.6-86C207.7,11.8,176.6,0,145.5,0z M228.6,204.6c-22.2,22.2-51.7,34.4-83.1,34.4 c-15.3,0-30.2-2.9-44.3-8.6l-2.5-1l-1.9,1.9l-12.6,12.6c-2,2-4.7,3.1-7.5,3.1c-2.8,0-5.5-1.1-7.5-3.1l-3-3l-2.9-2.9l-2.9,2.9 L5.6,295.7c-0.2,0.2-0.5,0.3-0.6,0.3c-0.1,0-0.2,0-0.3-0.1c-0.3-0.1-0.6-0.5-0.6-0.8v-45.7c0-0.5,0.4-0.9,0.9-0.9 c0.5,0,0.9,0.4,0.9,0.9V283v9.8l6.9-6.9l46.3-46.3l2.9-2.9l-2.9-2.9l-8.5-8.5l-17.4-17.4l-2.9-2.9l-2.9,2.9L5.6,229.6 c-0.2,0.2-0.5,0.3-0.6,0.3c-0.2,0-0.4,0-0.6-0.3c-0.2-0.2-0.3-0.5-0.3-0.6c0-0.2,0-0.4,0.3-0.6l21.8-21.8l2.9-2.9l-2.9-2.9l-3-3 c-2-2-3.1-4.7-3.1-7.5c0-2.8,1.1-5.5,3.1-7.5l12.6-12.6l1.9-1.9l-1-2.5c-5.7-14.1-8.6-29-8.6-44.3c0-31.4,12.2-60.9,34.4-83.1 c22.2-22.2,51.7-34.4,83.1-34.4c31.4,0,60.9,12.2,83.1,34.4c22.2,22.2,34.4,51.7,34.4,83.1C263,152.9,250.7,182.4,228.6,204.6z"
                                    style="fill: inherit;" />
                                <path
                                    d="M233.6,149.7c-0.6-0.2-1.2-0.3-1.8-0.3c-2,0-3.9,1.2-4.7,3.2c-0.9,2.3-1.9,4.6-3,6.9c-4.2,8.8-9.9,16.8-16.9,23.7 c-17,17-39.4,25.5-61.8,25.5c-22.4,0-44.7-8.5-61.8-25.5c-34.1-34.1-34.1-89.5,0-123.6c16.5-16.5,38.4-25.6,61.8-25.6 c2.5,0,5,0.1,8,0.3c2.6,0,4.7-2,5-4.6c0.2-2.7-1.8-5.1-4.5-5.4c-2.8-0.2-5.6-0.4-8.4-0.4c-26,0-50.4,10.1-68.8,28.5 c-37.9,37.9-37.9,99.7,0,137.6c19,19,43.9,28.5,68.8,28.5s49.8-9.5,68.8-28.5c7.8-7.8,14.1-16.7,18.8-26.4 c1.2-2.5,2.3-5.1,3.3-7.7C237.4,153.6,236.1,150.7,233.6,149.7z M229.5,162.1c-4.5,9.4-10.6,17.9-18,25.3 c-17.6,17.6-41,27.3-65.9,27.3c-24.9,0-48.4-9.7-65.9-27.3c-36.4-36.4-36.4-95.5,0-131.9c17.6-17.6,41-27.3,65.9-27.3 c2.7,0,5.4,0.1,8,0.3c0.5,0,0.9,0.5,0.8,1c0,0.4-0.4,0.8-0.8,0.8c-3-0.2-5.5-0.3-8.1-0.3c-24.4,0-47.4,9.5-64.7,26.8 c-35.7,35.7-35.7,93.7,0,129.3c17.2,17.2,40.2,26.7,64.7,26.7c24.4,0,47.4-9.5,64.7-26.7c7.3-7.3,13.2-15.6,17.7-24.8 c1.2-2.4,2.2-4.8,3.1-7.2c0.2-0.4,0.5-0.6,0.9-0.6c0.1,0,0.2,0,0.3,0.1c0.3,0.1,0.4,0.3,0.5,0.5c0.1,0.2,0.1,0.4,0,0.7 C231.7,157.2,230.6,159.7,229.5,162.1z"
                                    style="fill: inherit;" />
                                <path
                                    d="M219.3,61.1c-1,0-2.1,0.3-3,1c-2.2,1.7-2.6,4.8-1,7c2.9,3.9,5.6,8.1,7.8,12.4c0.9,1.7,2.6,2.7,4.4,2.7 c0.8,0,1.5-0.2,2.3-0.6c2.4-1.3,3.4-4.3,2.1-6.7c-2.5-4.8-5.4-9.5-8.7-13.8C222.3,61.8,220.9,61.1,219.3,61.1z M228,80 c-0.1,0.1-0.3,0.1-0.4,0.1c-0.3,0-0.6-0.1-0.8-0.5c-2.3-4.5-5.1-8.9-8.2-13c-0.3-0.4-0.2-1,0.2-1.3c0.2-0.1,0.3-0.2,0.5-0.2 c0.1,0,0.5,0,0.7,0.4c3.1,4.2,5.9,8.6,8.3,13.2C228.6,79.2,228.4,79.8,228,80z"
                                    style="fill: inherit;" />
                                <path
                                    d="M181.3,41.8c4.5,2,8.8,4.4,12.8,7.1c0.9,0.6,1.8,0.8,2.8,0.8c1.6,0,3.2-0.8,4.1-2.2c1.5-2.3,0.9-5.4-1.4-6.9 c-4.5-3-9.3-5.7-14.3-7.9c-0.7-0.3-1.4-0.4-2-0.4c-1.9,0-3.7,1.1-4.5,2.9C177.7,37.7,178.8,40.7,181.3,41.8z M180.7,36.1 c0.5-1.1,1.5-1.7,2.7-1.7c0.4,0,0.8,0.1,1.2,0.3c4.9,2.2,9.6,4.8,14,7.8c1.3,0.9,1.7,2.7,0.8,4.1c-0.5,0.8-1.5,1.3-2.4,1.3 c-0.6,0-1.1-0.2-1.6-0.5c-4.1-2.8-8.6-5.2-13.1-7.3c-0.7-0.3-1.3-0.9-1.5-1.6C180.4,37.6,180.4,36.8,180.7,36.1z"
                                    style="fill: inherit;" />
                                <path
                                    d="M68.2,212.6l-0.5-0.5l-0.3-0.3c-2.5-2.2-4.5-4-6.3-5.9c-1.8-1.8-3.7-3.8-5.8-6.3l-0.3-0.3l-0.5-0.6 c-6-7-11.1-14.7-15.2-22.7l-1.3-2.5l-2,2l-10,10c-1.3,1.3-2,3-2,4.8c0,1.8,0.7,3.5,2,4.8l46.1,46.1c1.2,1.2,3,1.9,4.8,1.9 c1.8,0,3.5-0.7,4.8-1.9l10-10l2-2l-2.5-1.3C82.8,223.7,75.2,218.6,68.2,212.6z M80,239.7c-0.9,0.9-2.1,1.3-3.3,1.3 c-1.2,0-2.4-0.4-3.3-1.3l-46.1-46.1c-1.8-1.8-1.8-4.8,0-6.7l10-10c4.2,8.2,9.4,16,15.5,23.1c0.3,0.3,0.5,0.6,0.8,0.9 c1.9,2.2,3.9,4.4,5.9,6.4c2.1,2.1,4.2,4,6.4,6c0.3,0.3,0.6,0.5,0.9,0.8c7.2,6.1,14.9,11.3,23.1,15.5L80,239.7z"
                                    style="fill: inherit;" />
                                <path
                                    d="M233.6,149.7c-0.6-0.2-1.2-0.3-1.8-0.3c-2,0-3.9,1.2-4.7,3.2c-0.9,2.3-1.9,4.6-3,6.9c-4.2,8.8-9.9,16.8-16.9,23.7 c-17,17-39.4,25.5-61.8,25.5c-22.4,0-44.7-8.5-61.8-25.5c-34.1-34.1-34.1-89.5,0-123.6c16.5-16.5,38.4-25.6,61.8-25.6 c2.5,0,5,0.1,8,0.3c2.6,0,4.7-2,5-4.6c0.2-2.7-1.8-5.1-4.5-5.4c-2.8-0.2-5.6-0.4-8.4-0.4c-26,0-50.4,10.1-68.8,28.5 c-37.9,37.9-37.9,99.7,0,137.6c19,19,43.9,28.5,68.8,28.5s49.8-9.5,68.8-28.5c7.8-7.8,14.1-16.7,18.8-26.4 c1.2-2.5,2.3-5.1,3.3-7.7C237.4,153.6,236.1,150.7,233.6,149.7z M234.5,155.4c-1,2.5-2.1,5.1-3.3,7.6 c-4.6,9.6-10.8,18.3-18.4,25.9c-18,18-41.9,27.9-67.4,27.9c-25.5,0-49.4-9.9-67.4-27.9c-37.1-37.2-37.1-97.6,0-134.8 c18-18,41.9-27.9,67.4-27.9c2.7,0,5.5,0.1,8.2,0.4c1.6,0.1,2.8,1.6,2.7,3.2c-0.1,1.5-1.4,2.7-2.8,2.7c-3-0.2-5.6-0.3-8.1-0.3 c-23.9,0-46.3,9.3-63.2,26.2c-34.9,34.9-34.9,91.6,0,126.4c16.9,16.9,39.3,26.1,63.2,26.1c23.9,0,46.4-9.3,63.2-26.1 c7.1-7.1,12.9-15.3,17.3-24.3c1.1-2.3,2.2-4.7,3.1-7.1c0.4-1.1,1.5-1.9,2.8-1.9c0.4,0,0.7,0.1,1,0.2c0.7,0.3,1.3,0.8,1.6,1.5 C234.8,153.9,234.8,154.7,234.5,155.4z"
                                    style="fill: inherit;" />
                                <path
                                    d="M145.5,0c-31.1,0-62.3,11.8-86,35.5c-23,23-35.6,53.5-35.6,86c0,16,3.1,31.5,8.9,45.8l-12.6,12.6c-5.7,5.7-5.7,15,0,20.7 l3,3L1.5,225.5c-1.9,1.9-1.9,5.1,0,7c1,1,2.2,1.5,3.5,1.5c1.3,0,2.5-0.5,3.5-1.5l21.8-21.8l17.4,17.4l8.5,8.5L10,283v-33.7 c0-2.7-2.2-5-5-5c-2.7,0-5,2.2-5,5V295c0,2,1.2,3.8,3.1,4.6c0.6,0.3,1.3,0.4,1.9,0.4c1.3,0,2.6-0.5,3.5-1.5l54.8-54.8l3,3 c2.8,2.8,6.5,4.3,10.4,4.3c3.9,0,7.6-1.5,10.4-4.3l12.6-12.6c14.4,5.8,29.9,8.9,45.8,8.9c32.5,0,63-12.6,86-35.6 c23-23,35.6-53.5,35.6-86c0-32.5-12.6-63-35.6-86C207.7,11.8,176.6,0,145.5,0z M230,206c-22.6,22.6-52.6,35-84.5,35 c-15.6,0-30.8-3-45.1-8.8l-1.3-0.5l-1,1l-12.6,12.6c-2.4,2.4-5.6,3.7-8.9,3.7c-3.4,0-6.5-1.3-8.9-3.7l-3-3l-1.4-1.4l-1.4,1.4 L7.1,297.1C6.5,297.7,5.8,298,5,298c-0.4,0-0.8-0.1-1.1-0.2C2.7,297.3,2,296.2,2,295v-45.7c0-1.6,1.3-2.9,2.9-2.9 c1.6,0,2.9,1.3,2.9,2.9V283v4.9l3.5-3.5l46.3-46.3l1.4-1.4l-1.4-1.4l-8.5-8.5l-17.4-17.4l-1.4-1.4l-1.4,1.4L7.1,231.1 c-0.6,0.6-1.3,0.9-2.1,0.9c-0.8,0-1.5-0.3-2.1-0.9C2.3,230.5,2,229.8,2,229c0-0.8,0.3-1.5,0.9-2.1l21.8-21.8l1.4-1.4l-1.4-1.4 l-3-3c-2.4-2.4-3.7-5.6-3.7-8.9c0-3.4,1.3-6.6,3.7-8.9l12.6-12.6l1-1l-0.5-1.3c-5.8-14.3-8.8-29.5-8.8-45.1 c0-31.9,12.4-61.9,35-84.5c22.5-22.5,52.6-35,84.5-35c32,0,62,12.4,84.5,35c22.6,22.6,35,52.6,35,84.5 C265,153.4,252.6,183.5,230,206z"
                                    style="fill: inherit;" />
                                <path
                                    d="M232.8,121.5c0,0.8,0,1.6,0,2.4c-0.1,2.7,2.1,5,5,5.1c2.7,0,4.9-2.1,5-4.8c0-0.9,0-1.8,0-2.7c0-4.5-0.3-9.1-0.9-13.6 c-0.3-2.5-2.5-4.3-4.9-4.3c-0.2,0-0.4,0-0.7,0c-2.7,0.4-4.6,2.9-4.2,5.6C232.6,113.3,232.8,117.4,232.8,121.5z M236.5,105.7 c0.1,0,0.3,0,0.4,0c1.5,0,2.7,1.1,2.9,2.5c0.6,4.4,0.9,8.9,0.9,13.3c0,0.9,0,1.8,0,2.7c0,1.6-1.3,2.9-2.9,2.9c-1.7,0-3-1.4-3-3 c0-0.8,0-1.7,0-2.5c0-4.2-0.3-8.4-0.9-12.5C233.8,107.4,234.9,105.9,236.5,105.7z"
                                    style="fill: inherit;" />
                                <path
                                    d="M145.5,7.9c-30.4,0-58.9,11.8-80.4,33.2c-21.5,21.5-33.3,50-33.3,80.4c0,15.6,3.2,30.8,9.5,45.4l0.2,0.2l0,0 c4.3,9.7,9.8,18.7,16.4,26.8c2.4,2.9,4.8,5.5,7.2,7.9c2.4,2.4,5,4.8,7.9,7.2c8,6.6,17,12.2,26.8,16.4l0.3,0.2l0.2,0.1 c14.4,6.2,29.6,9.4,45.2,9.4c30.4,0,58.9-11.8,80.4-33.3c21.5-21.5,33.3-50,33.3-80.4c0-30.4-11.8-58.9-33.3-80.4 C204.4,19.7,175.9,7.9,145.5,7.9z M224.4,200.4c-21.1,21.1-49.1,32.7-78.9,32.7c-15.5,0-30.6-3.2-44.4-9.2 c-0.2-0.1-0.3-0.2-0.5-0.3c-9.6-4.2-18.4-9.6-26.3-16.1c-2.7-2.2-5.3-4.6-7.8-7.1c-2.5-2.5-4.8-5.1-7-7.8 c-6.5-7.9-11.9-16.7-16.1-26.3c-0.1-0.2-0.2-0.3-0.3-0.5c-6-13.8-9.2-28.9-9.2-44.4c0-29.8,11.6-57.8,32.7-78.9 C88.3,20.8,116.9,10,145.5,10c28.6,0,57.2,10.9,78.9,32.6c21.1,21.1,32.7,49.1,32.7,78.9C257.1,151.3,245.5,179.3,224.4,200.4z"
                                    style="fill: inherit;" />
                                <path
                                    d="M219.3,61.1c-1,0-2.1,0.3-3,1c-2.2,1.7-2.6,4.8-1,7c2.9,3.9,5.6,8.1,7.8,12.4c0.9,1.7,2.6,2.7,4.4,2.7 c0.8,0,1.5-0.2,2.3-0.6c2.4-1.3,3.4-4.3,2.1-6.7c-2.5-4.8-5.4-9.5-8.7-13.8C222.3,61.8,220.9,61.1,219.3,61.1z M228.9,81.8 c-0.4,0.2-0.9,0.3-1.4,0.3c-1.1,0-2.1-0.6-2.6-1.6c-2.3-4.4-5-8.7-8-12.7c-1-1.3-0.7-3.1,0.6-4.1c0.5-0.4,1.1-0.6,1.8-0.6 c0.9,0,1.8,0.4,2.4,1.2c3.2,4.3,6.1,8.8,8.5,13.5C230.9,79.3,230.4,81.1,228.9,81.8z"
                                    style="fill: inherit;" />
                            </g>
                            <g id="__id112_soxi50mss">
                                <path
                                    d="M133.4,129.7l-17.6-43c-0.5-1.1-1.5-1.8-2.7-1.8c-1.2,0-2.3,0.7-2.7,1.8l-27.6,67.5c-0.6,1.5,0.1,3.2,1.6,3.8 c0.4,0.1,0.7,0.2,1.1,0.2c1.2,0,2.3-0.7,2.7-1.8l9.2-22.6h31.2l9.2,22.6c0.5,1.1,1.5,1.8,2.7,1.8c0.4,0,0.8-0.1,1.1-0.2 c1.5-0.6,2.2-2.3,1.6-3.8L133.4,129.7z M99.8,127.9L113,95.6l13.2,32.3H99.8z"
                                    style="fill: inherit;" />
                                <path
                                    d="M181.4,84.8h-13.1c-1.6,0-2.9,1.3-2.9,2.9v67.5c0,1.6,1.3,2.9,2.9,2.9h13.1c14.9,0,27.1-11,27.1-24.6v-24.1 C208.4,95.9,196.3,84.8,181.4,84.8z M202.5,133.6c0,10.3-9.5,18.7-21.2,18.7h-10.1V90.7h10.1c11.7,0,21.2,8.4,21.2,18.7V133.6z"
                                    style="fill: inherit;" />
                                <path
                                    d="M116.8,99.4l-3.8-9.2l-3.8,9.2l-10.2,24.9l-2.3,5.6h6.1h20.4h6.1l-2.3-5.6L116.8,99.4z M102.9,125.8l10.2-24.9l10.2,24.9 H102.9z"
                                    style="fill: inherit;" />
                                <path
                                    d="M181.4,82.8h-13.1c-2.8,0-5,2.2-5,5v67.5c0,2.8,2.2,5,5,5h13.1c16,0,29.1-11.9,29.1-26.6v-24.1 C210.5,94.8,197.4,82.8,181.4,82.8z M206.4,133.6c0,12.4-11.2,22.6-25,22.6h-13.1c-0.5,0-0.9-0.4-0.9-0.9V87.8 c0-0.5,0.4-0.9,0.9-0.9h13.1c13.8,0,25,10.1,25,22.6V133.6z"
                                    style="fill: inherit;" />
                                <path
                                    d="M181.4,88.7h-8.1h-4.1v4.1v57.5v4.1h4.1h8.1c12.8,0,23.2-9.3,23.2-20.7v-24.1C204.6,98,194.2,88.7,181.4,88.7z M200.5,133.6c0,9.2-8.6,16.7-19.1,16.7h-8.1V92.8h8.1c10.6,0,19.1,7.5,19.1,16.7V133.6z"
                                    style="fill: inherit;" />
                                <path
                                    d="M135.2,128.9C135.2,128.9,135.2,128.9,135.2,128.9l-17.6-43c-0.8-1.9-2.6-3.1-4.6-3.1c-2,0-3.8,1.2-4.6,3.1l-17.6,43 c0,0,0,0,0,0l-10,24.5c-1,2.5,0.2,5.4,2.7,6.5c0.6,0.3,1.3,0.4,1.9,0.4c2,0,3.8-1.2,4.6-3.1l8.7-21.3h28.5l8.7,21.3 c0.8,1.9,2.6,3.1,4.6,3.1c0.6,0,1.3-0.1,1.9-0.4c2.5-1,3.8-3.9,2.7-6.5L135.2,128.9z M141,156.1c-0.1,0-0.2,0.1-0.3,0.1 c-0.3,0-0.7-0.1-0.8-0.6l-8.7-21.3l-1-2.5h-2.7H98.8h-2.7l-1,2.5l-8.7,21.3c-0.2,0.4-0.6,0.6-0.8,0.6c-0.1,0-0.2,0-0.3-0.1 c-0.5-0.2-0.7-0.7-0.5-1.2l10-24.5l17.6-43c0.1-0.3,0.5-0.6,0.8-0.6c0.4,0,0.7,0.2,0.8,0.6l17.5,42.8l0,0l0.1,0.1l10,24.5 C141.7,155.4,141.4,155.9,141,156.1z"
                                    style="fill: inherit;" />
                                <path
                                    d="M114.9,100.2l-1.9-4.6l-1.9,4.6L101,125.1l-1.1,2.8h3h20.4h3l-1.1-2.8L114.9,100.2z M102.9,125.8l10.2-24.9l10.2,24.9 H102.9z"
                                    style="fill: inherit;" />
                                <path
                                    d="M135.2,128.9C135.2,128.9,135.2,128.9,135.2,128.9l-17.6-43c-0.8-1.9-2.6-3.1-4.6-3.1c-2,0-3.8,1.2-4.6,3.1l-17.6,43 c0,0,0,0,0,0l-10,24.5c-1,2.5,0.2,5.4,2.7,6.5c0.6,0.3,1.3,0.4,1.9,0.4c2,0,3.8-1.2,4.6-3.1l8.7-21.3h28.5l8.7,21.3 c0.8,1.9,2.6,3.1,4.6,3.1c0.6,0,1.3-0.1,1.9-0.4c2.5-1,3.8-3.9,2.7-6.5L135.2,128.9z M141.7,158c-0.4,0.1-0.7,0.2-1.1,0.2 c-1.2,0-2.3-0.7-2.7-1.8l-8.7-21.3l-0.5-1.3h-1.4H98.8h-1.4l-0.5,1.3l-8.7,21.3c-0.5,1.1-1.5,1.8-2.7,1.8c-0.4,0-0.8-0.1-1.1-0.2 c-1.5-0.6-2.2-2.3-1.6-3.8l10-24.5l17.6-43c0.5-1.1,1.5-1.8,2.7-1.8c1.2,0,2.3,0.7,2.7,1.8l17.6,43l10,24.5 C144,155.6,143.2,157.3,141.7,158z"
                                    style="fill: inherit;" />
                                <path
                                    d="M181.4,82.8h-13.1c-2.8,0-5,2.2-5,5v67.5c0,2.8,2.2,5,5,5h13.1c16,0,29.1-11.9,29.1-26.6v-24.1 C210.5,94.8,197.4,82.8,181.4,82.8z M208.4,133.6c0,13.6-12.1,24.6-27.1,24.6h-13.1c-1.6,0-2.9-1.3-2.9-2.9V87.8 c0-1.6,1.3-2.9,2.9-2.9h13.1c14.9,0,27.1,11,27.1,24.6V133.6z"
                                    style="fill: inherit;" />
                                <path
                                    d="M181.4,90.7h-8.1h-2v2v57.5v2h2h8.1c11.7,0,21.2-8.4,21.2-18.7v-24.1C202.5,99.1,193,90.7,181.4,90.7z M200.5,133.6 c0,9.2-8.6,16.7-19.1,16.7h-8.1V92.8h8.1c10.6,0,19.1,7.5,19.1,16.7V133.6z"
                                    style="fill: inherit;" />
                            </g>
                        </g>
                    </svg>