<svg width="17" height="15" viewBox="0 0 17 15" fill="none" xmlns="http://www.w3.org/2000/svg">
<path d="M13.6351 0C13.8068 0 13.9662 0.0796909 14.0653 0.211248L14.1039 0.270723L16.9423 5.39305L16.9727 5.46286L16.9809 5.48864L16.9929 5.54134L16.9995 5.60134L16.998 5.66911L17 5.625C17 5.69666 16.9847 5.76491 16.957 5.82689L16.9366 5.86752L16.9078 5.91293L16.8705 5.95964L8.92406 14.7987C8.85315 14.8903 8.75602 14.9507 8.65054 14.9798L8.60945 14.9894L8.54045 14.9986L8.49894 15L8.42767 14.9954L8.36739 14.9844L8.29421 14.9613L8.276 14.953C8.21203 14.9258 8.15324 14.8852 8.10407 14.8319L0.119098 5.94975L0.0750985 5.89002L0.0411586 5.82655L0.0165909 5.75884L0.000198286 5.66945L0 5.58259L0.0105269 5.5153L0.0173205 5.48857L0.0413356 5.42305L0.0607037 5.38439L2.89434 0.270723C2.97514 0.124916 3.12324 0.027 3.29045 0.00480002L3.36314 0H13.6351ZM11.2661 6.13636H5.72991L8.49979 13.0636L11.2661 6.13636ZM4.59223 6.13636H1.69058L6.91366 11.9441L4.59223 6.13636ZM15.3055 6.13636H12.406L10.0873 11.9393L15.3055 6.13636ZM5.68245 1.02205H3.68122L1.4136 5.11364H4.54831L5.68245 1.02205ZM10.2156 1.02205H6.7819L5.64776 5.11364H11.349L10.2156 1.02205ZM13.3163 1.02205H11.315L12.4492 5.11364H15.5825L13.3163 1.02205Z" fill="#576CBC"/>
</svg>
