<svg width="8" height="10" viewBox="0 0 8 10" fill="none" xmlns="http://www.w3.org/2000/svg">
<path d="M0.603297 5.12952H1.5153V0.953515H3.6153C4.9193 0.953515 5.8713 1.17752 6.4713 1.62551C7.0793 2.06552 7.3833 2.73752 7.3833 3.64152C7.3833 4.56152 7.0633 5.25752 6.4233 5.72952C5.7833 6.19352 4.8473 6.42552 3.6153 6.42552H3.0153V7.08552H5.6433V8.36952H3.0153V9.35352H1.5153V8.36952H0.603297V7.08552H1.5153V6.40152H0.603297V5.12952ZM3.7473 2.26152H3.0153V5.11752H3.7113C4.4313 5.11752 4.9633 5.00152 5.3073 4.76952C5.6593 4.52952 5.8353 4.14552 5.8353 3.61752C5.8353 3.12952 5.6713 2.78152 5.3433 2.57352C5.0153 2.36552 4.4833 2.26152 3.7473 2.26152Z" fill="#333F48"/>
</svg>
