<svg width="14" height="10" viewBox="0 0 14 10" fill="none" xmlns="http://www.w3.org/2000/svg">
<path d="M0.517947 4.82369C0.231999 4.82369 0 5.06089 0 5.35332V9.32459C0 9.61703 0.231999 9.85352 0.517947 9.85352H13.482C13.7679 9.85352 14 9.61703 14 9.32459V1.38244C14 1.09001 13.7679 0.853516 13.482 0.853516H8.2964C8.01045 0.853516 7.77845 1.09001 7.77845 1.38244V4.82361H0.517947V4.82369ZM10.3712 5.88295V8.79504H4.66626V5.88295H10.3712ZM1.03735 5.88295H3.63021V8.79504H1.03735V5.88295ZM11.4072 8.79496V5.88287H12.964V8.79496H11.4072ZM12.9641 1.91215V4.82369H8.81587V1.91215H12.9641Z" fill="#333F48"/>
</svg>
