<svg width="9" height="13" viewBox="0 0 9 13" fill="none" xmlns="http://www.w3.org/2000/svg">
<path d="M4.5 12.3535C4.01471 12.3535 3.59559 12.1345 3.375 11.7623L0.595588 6.83527C0.220588 6.20023 0 5.45571 0 4.68928C0 2.30242 2.02941 0.353516 4.5 0.353516C6.99265 0.353516 9 2.30242 9 4.68928C9 5.45571 8.77941 6.20023 8.38235 6.85717L5.64706 11.7404C5.40441 12.1345 4.98529 12.3535 4.5 12.3535ZM4.5 1.27322C2.53676 1.27322 0.926471 2.80607 0.926471 4.68928C0.926471 5.28052 1.08088 5.87176 1.41176 6.39731L4.19118 11.3024C4.23529 11.39 4.36765 11.4338 4.52206 11.4338C4.67647 11.4338 4.80882 11.3681 4.85294 11.2805L7.61029 6.39731C7.91912 5.87176 8.09559 5.28052 8.09559 4.68928C8.07353 2.80607 6.48529 1.27322 4.5 1.27322ZM4.5 6.44111C3.59559 6.44111 2.86765 5.69658 2.86765 4.82067C2.86765 3.92286 3.59559 3.20023 4.5 3.20023C5.40441 3.20023 6.13235 3.92286 6.13235 4.82067C6.13235 5.69658 5.40441 6.44111 4.5 6.44111ZM4.5 4.11994C4.10294 4.11994 3.79412 4.42651 3.79412 4.82067C3.79412 5.21483 4.10294 5.5214 4.5 5.5214C4.89706 5.5214 5.20588 5.21483 5.20588 4.82067C5.20588 4.42651 4.89706 4.11994 4.5 4.11994Z" fill="#333F48"/>
</svg>
